<svg width="256" height="32" viewBox="0 0 256 32" fill="none" xmlns="http://www.w3.org/2000/svg">
<g clip-path="url(#clip0_464_782)">
<path d="M77.4537 7.80255C83.4388 8.53401 83.9521 16.541 78.2689 18.1305L82.4247 24.1794L79.791 24.0082L75.6461 18.2254H72.302V24.1813H70.1328V7.80255C72.4484 8.00728 75.1924 7.52709 77.4537 7.80255ZM72.302 16.178H77.4537C77.5332 16.178 78.5311 15.696 78.6901 15.5899C80.458 14.4117 80.5321 11.7018 78.757 10.5553C78.6178 10.466 77.6959 10.036 77.6345 10.036H72.302V16.178Z" fill="black" style="fill:black;fill-opacity:1;"/>
<path d="M101.947 7.80469V10.0382H93.0892L92.8903 14.2278L93.1796 14.8773H100.229L100.459 15.1472C100.058 15.7763 100.676 16.5301 100.229 16.9247H93.0892C93.2772 18.6779 92.6535 20.4182 93.0892 22.1361H101.856L102.084 22.4078L101.947 24.1834H90.7393V8.08387L91.0104 7.80469H101.947Z" fill="black" style="fill:black;fill-opacity:1;"/>
<path d="M143.522 7.80469V10.0382H134.484V14.8773H141.895V16.9247H134.755L134.484 17.2039V22.1361H143.522V24.1834H132.314V8.08387L132.586 7.80469H143.522Z" fill="black" style="fill:black;fill-opacity:1;"/>
<path d="M245.355 9.17247C247.24 7.23866 250.906 7.30008 253.24 8.27164C255.179 9.07941 255.899 9.66197 254.031 11.3259C252.366 10.0063 250.076 9.16502 248.007 9.9486C246.864 10.3804 246 11.4953 246.512 12.7814C247.54 15.3666 255.313 14.0545 255.938 18.7075C256.719 24.5127 249.697 25.4991 245.794 23.569C245.422 23.3848 243.883 22.4113 243.741 22.134C243.462 21.5943 244.706 20.6581 245.018 20.2802C246.736 22.3834 251.672 23.5374 253.344 21.0266C255.743 17.4251 248.751 16.9021 246.92 16.0813C244.151 14.838 243.111 11.4729 245.355 9.17247Z" fill="black" style="fill:black;fill-opacity:1;"/>
<path d="M228.622 7.66962C231.427 7.31599 234.292 8.12748 236.208 10.3144L234.742 11.8834C230.111 7.18198 222.993 10.6662 224.041 17.4913C224.679 21.6455 229.482 23.5663 232.938 21.6065C233.636 21.21 234.057 20.6591 234.717 20.2664L236.25 21.6697C231.883 26.6597 223.313 24.9008 221.874 18.0497C220.876 13.298 223.793 8.27638 228.622 7.66962Z" fill="black" style="fill:black;fill-opacity:1;"/>
<path d="M116.771 19.9008L122.041 7.83447L124.36 7.80469L117.473 23.8838L116.491 24.1983L109.358 7.80469L111.799 7.98895L116.771 19.9008Z" fill="black" style="fill:black;fill-opacity:1;"/>
<path d="M175.156 17.3881C173.765 14.4139 170.68 11.3131 169.36 8.46728C169.255 8.24208 169.125 8.08573 169.192 7.80469L171.643 7.97778L176.33 15.0597L181.018 7.97778L183.471 7.80469C183.534 8.13599 183.384 8.34072 183.261 8.6106C182.645 9.94509 177.507 16.6809 177.507 17.2039V24.1834H175.157V17.39L175.156 17.3881Z" fill="black" style="fill:black;fill-opacity:1;"/>
<path d="M202.813 7.80469V10.0382H197.751V24.1834H195.582V10.0382H190.792L190.55 9.72919C190.51 9.3737 190.481 8.98843 190.512 8.63293C190.539 8.3035 190.472 8.01128 190.792 7.80469H202.813Z" fill="black" style="fill:black;fill-opacity:1;"/>
<path d="M154.367 22.1332H162.321V24.1806H152.198L152.018 8.26713L152.187 7.88372C152.433 7.70876 154.118 7.66782 154.367 8.08101V22.1332Z" fill="black" style="fill:black;fill-opacity:1;"/>
<path d="M213.115 7.79297H210.946V24.181H213.115V7.79297Z" fill="black" style="fill:black;fill-opacity:1;"/>
<path d="M54.4046 0.171875H53.499V32.0006H54.4046V0.171875Z" fill="black" style="fill:black;fill-opacity:1;"/>
<path d="M26.8397 18.0407C37.0907 16.9724 37.0727 3.58646 26.3046 2.77125L1.0195 2.78614L0 0.450305L0.620017 0.163676C8.97668 0.589896 17.8142 -0.376078 26.1148 0.174844C39.0755 1.03473 41.3459 16.1776 29.2474 20.1495L24.9417 20.8307L39.2201 31.8138H34.7914C29.5113 27.3506 23.7504 23.4755 18.4505 19.0458C18.1522 18.7964 17.5069 18.4539 17.5286 18.0407C20.5112 17.8137 23.9059 18.346 26.8379 18.0407H26.8397Z" fill="#CD4631" style="fill:#CD4631;fill:color(display-p3 0.8039 0.2745 0.1922);fill-opacity:1;"/>
<path d="M22.4111 9.10547L23.1341 11.5251H3.88288L3.61174 11.8042V31.8124H1.08105V9.10547H22.4111Z" fill="#CD4631" style="fill:#CD4631;fill:color(display-p3 0.8039 0.2745 0.1922);fill-opacity:1;"/>
<path d="M10.5712 18.4141L27.6533 31.8149H23.0438C17.5739 27.2139 11.7082 23.1043 6.32324 18.4141H10.5712Z" fill="#CD4631" style="fill:#CD4631;fill:color(display-p3 0.8039 0.2745 0.1922);fill-opacity:1;"/>
</g>
<defs>
<clipPath id="clip0_464_782">
<rect width="256" height="32" fill="white" style="fill:white;fill-opacity:1;"/>
</clipPath>
</defs>
</svg>
